<?xml version="1.0" standalone="no"?> <!DOCTYPE svg PUBLIC "-//W3C//DTD SVG 1.0//EN" "http://www.w3.org/TR/2001/REC-SVG-20010904/DTD/svg10.dtd" > <svg xmlns="http://www.w3.org/2000/svg" width="100%" height="100%">
<defs >
<font horiz-adv-x="1024" ><font-face
    font-family="November"
    units-per-em="2048"
    panose-1="2 0 0 9 0 0 0 0 0 0"
    ascent="1792"
    descent="-256"
    alphabetic="0" />
<missing-glyph d="M256 0V1280H1280V0H256ZM288 32H1248V1248H288V32Z" />
<glyph unicode=" " glyph-name="space" />
<glyph unicode="!" glyph-name="exclam" d="M384 256H640V0H384V256ZM640 1792V1536L768 1523V1024H640V512H384V1024H256V1536H384V1792H640Z" />
<glyph unicode="&quot;" glyph-name="quotedbl" d="M384 1792V1280H128V1792H384ZM768 1792V1280H512V1792H768Z" />
<glyph unicode="#" glyph-name="numbersign" d="M384 1024V768H512V1024H384ZM0 768H128V1024H0V1280H128V1792H384V1280H512V1792H768V1280H896V1024H768V768H896V512H768V0H512V512H384V0H128V512H0V768Z" />
<glyph unicode="$" glyph-name="dollar" d="M640 1792V1536H896V1280H384V1024H768V768H896V512H768V256H640V0H384V256H128V512H640V768H256V1024H128V1280H256V1536H384V1792H640Z" />
<glyph unicode="%" glyph-name="percent" d="M0 1536H256V1024H0V1536ZM640 512H896V0H640V512ZM0 256H128V512H256V768H384V1024H512V1280H640V1536H896V1280H768V1024H640V768H512V512H384V256H256V0H0V256Z" />
<glyph unicode="&amp;" glyph-name="ampersand" d="M256 768V256H512V512H384V768H256ZM384 1536V1024H512V1536H384ZM512 1024V768H640V1024H512ZM0 768H128V1536H256V1792H640V1536H768V1280H640V1024H896V768H768V256H896V0H640V256H512V0H128V256H0V768Z" />
<glyph unicode="&apos;" glyph-name="quotesingle" d="M640 1792V1280H512V1024H256V1280H384V1792H640Z" />
<glyph unicode="(" glyph-name="parenleft" d="M768 1792V1536H640V1280H512V512H640V256H768V0H512V256H384V512H256V1280H384V1536H512V1792H768Z" />
<glyph unicode=")" glyph-name="parenright" d="M512 1792V1536H640V1280H768V512H640V256H512V0H256V256H384V512H512V1280H384V1536H256V1792H512Z" />
<glyph unicode="*" glyph-name="asterisk" d="M0 1024H256V1280H128V1536H384V1280H640V1536H896V1280H768V1024H1024V768H768V512H896V256H640V512H384V256H128V512H256V768H0V1024Z" />
<glyph unicode="+" glyph-name="plus" d="M384 1536H640V1024H896V768H640V256H384V768H128V1024H384V1536Z" />
<glyph unicode="," glyph-name="comma" d="M384 512H640V0H512V-256H256V0H384V512Z" />
<glyph unicode="-" glyph-name="hyphen" d="M128 1024H896V768H128V1024Z" />
<glyph unicode="." glyph-name="period" d="M384 512H640V0H384V512Z" />
<glyph unicode="/" glyph-name="slash" d="M0 256H128V512H256V768H384V1024H512V1280H640V1536H768V1792H1024V1536H896V1280H768V1024H640V768H512V512H384V256H256V0H0V256Z" />
<glyph unicode="0" glyph-name="zero" d="M384 512V256H640V768H512V512H384ZM384 1536V1024H512V1280H640V1536H384ZM768 1792V1536H896V256H768V0H256V256H128V1536H256V1792H768Z" />
<glyph unicode="1" glyph-name="one" d="M640 1792V256H896V0H128V256H384V1280H256V1536H384V1792H640Z" />
<glyph unicode="2" glyph-name="two" d="M128 1280V1536H256V1792H768V1536H896V1024H768V768H512V512H384V256H640V512H896V0H128V512H256V768H384V1024H640V1536H384V1280H128Z" />
<glyph unicode="3" glyph-name="three" d="M128 512H384V256H640V768H384V1024H640V1536H384V1280H128V1536H256V1792H768V1536H896V1024H768V768H896V256H768V0H256V256H128V512Z" />
<glyph unicode="4" glyph-name="four" d="M256 1024V768H512V1280H384V1024H256ZM0 1024H128V1280H256V1536H384V1792H768V768H896V512H768V256H896V0H384V256H512V512H0V1024Z" />
<glyph unicode="5" glyph-name="five" d="M128 512H384V256H640V1024H128V1792H896V1536H384V1280H768V1024H896V256H768V0H256V256H128V512Z" />
<glyph unicode="6" glyph-name="six" d="M384 768V256H640V768H384ZM768 1792V1536H512V1280H384V1024H768V768H896V256H768V0H256V256H128V1280H256V1536H384V1792H768Z" />
<glyph unicode="7" glyph-name="seven" d="M896 1792V1024H768V768H640V0H384V768H512V1024H640V1536H384V1280H128V1792H896Z" />
<glyph unicode="8" glyph-name="eight" d="M384 768V256H640V768H384ZM384 1536V1024H640V1536H384ZM768 1792V1536H896V1024H768V768H896V256H768V0H256V256H128V768H256V1024H128V1536H256V1792H768Z" />
<glyph unicode="9" glyph-name="nine" d="M384 1536V1024H640V1536H384ZM768 1792V1536H896V512H768V256H640V0H256V256H512V512H640V768H256V1024H128V1536H256V1792H768Z" />
<glyph unicode=":" glyph-name="colon" d="M384 512H640V0H384V512ZM384 1408H640V896H384V1408Z" />
<glyph unicode=";" glyph-name="semicolon" d="M384 512H640V0H512V-256H256V0H384V512ZM384 1536H640V1024H384V1536Z" />
<glyph unicode="&lt;" glyph-name="less" d="M768 1792V1536H640V1280H512V1024H384V768H512V512H640V256H768V0H512V256H384V512H256V768H128V1024H256V1280H384V1536H512V1792H768Z" />
<glyph unicode="=" glyph-name="equal" d="M128 640H896V384H128V640ZM128 1408H896V1152H128V1408Z" />
<glyph unicode="&gt;" glyph-name="greater" d="M512 1792V1536H640V1280H768V1024H896V768H768V512H640V256H512V0H256V256H384V512H512V768H640V1024H512V1280H384V1536H256V1792H512Z" />
<glyph unicode="?" glyph-name="question" d="M384 256H640V0H384V256ZM768 1792V1536H896V1024H768V768H640V512H384V768H512V1024H640V1536H384V1280H128V1536H256V1792H768Z" />
<glyph unicode="@" glyph-name="at" d="M0 1536H128V1792H768V1536H896V512H384V1280H640V1536H256V256H640V0H128V256H0V1536Z" />
<glyph unicode="A" glyph-name="A" d="M384 1024V768H640V1024H384ZM0 512H128V1024H256V1536H384V1792H640V1536H768V1024H896V512H1024V0H768V512H256V0H0V512Z" />
<glyph unicode="B" glyph-name="B" d="M384 768V256H640V768H384ZM384 1536V1024H640V1536H384ZM0 256H128V1536H0V1792H768V1536H896V1024H768V768H896V256H768V0H0V256Z" />
<glyph unicode="C" glyph-name="C" d="M0 1280H128V1536H256V1792H768V1536H896V1280H640V1536H384V1280H256V512H384V256H640V512H896V256H768V0H256V256H128V512H0V1280Z" />
<glyph unicode="D" glyph-name="D" d="M384 1536V256H512V512H640V1280H512V1536H384ZM0 256H128V1536H0V1792H640V1536H768V1280H896V512H768V256H640V0H0V256Z" />
<glyph unicode="E" glyph-name="E" d="M0 256H128V1536H0V1792H896V1280H640V1536H384V1024H640V768H384V256H640V512H896V0H0V256Z" />
<glyph unicode="F" glyph-name="F" d="M0 256H128V1536H0V1792H896V1280H640V1536H384V1024H640V768H384V256H512V0H0V256Z" />
<glyph unicode="G" glyph-name="G" d="M0 1280H128V1536H256V1792H768V1536H896V1280H640V1536H384V1280H256V512H384V256H640V768H512V1024H896V0H256V256H128V512H0V1280Z" />
<glyph unicode="H" glyph-name="H" d="M384 1792V1024H640V1792H896V0H640V768H384V0H128V1792H384Z" />
<glyph unicode="I" glyph-name="I" d="M896 1792V1536H640V256H896V0H128V256H384V1536H128V1792H896Z" />
<glyph unicode="J" glyph-name="J" d="M128 768H384V256H640V1536H512V1792H896V128H768V0H256V256H128V768Z" />
<glyph unicode="K" glyph-name="K" d="M0 384H128V1536H0V1792H384V1024H512V1280H640V1792H896V1280H768V1024H640V768H768V512H896V0H640V512H512V768H384V0H0V384Z" />
<glyph unicode="L" glyph-name="L" d="M0 256H128V1536H0V1792H512V1536H384V256H640V512H768V768H896V0H0V256Z" />
<glyph unicode="M" glyph-name="M" d="M0 1792H128V1536H256V1280H384V1024H512V1280H640V1536H768V1792H896V0H640V768H512V512H384V768H256V0H0V1792Z" />
<glyph unicode="N" glyph-name="N" d="M0 1792H256V1536H384V1280H512V1024H640V1792H896V0H640V512H512V768H384V1024H256V0H0V1792Z" />
<glyph unicode="O" glyph-name="O" d="M256 1280V512H384V256H512V512H640V1280H512V1536H384V1280H256ZM0 1280H128V1536H256V1792H640V1536H768V1280H896V512H768V256H640V0H256V256H128V512H0V1280Z" />
<glyph unicode="P" glyph-name="P" d="M384 1536V1024H640V1536H384ZM0 256H128V1536H0V1792H768V1536H896V1024H768V768H384V256H512V0H0V256Z" />
<glyph unicode="Q" glyph-name="Q" d="M256 1280V512H384V256H512V512H640V1280H512V1536H384V1280H256ZM0 1280H128V1536H256V1792H640V1536H768V1280H896V512H768V0H896V-256H640V0H256V256H128V512H0V1280Z" />
<glyph unicode="R" glyph-name="R" d="M384 1536V1024H640V1536H384ZM0 256H128V1536H0V1792H768V1536H896V1024H768V512H896V256H1024V0H768V256H640V512H512V768H384V256H512V0H0V256Z" />
<glyph unicode="S" glyph-name="S" d="M128 512H384V256H640V512H512V768H256V1024H128V1536H256V1792H768V1536H896V1280H640V1536H384V1280H512V1024H640V768H896V256H768V0H256V256H128V512Z" />
<glyph unicode="T" glyph-name="T" d="M896 1792V1280H768V1536H640V256H768V0H256V256H384V1536H256V1280H128V1792H896Z" />
<glyph unicode="U" glyph-name="U" d="M384 1792V256H640V1792H896V0H256V256H128V1792H384Z" />
<glyph unicode="V" glyph-name="V" d="M0 1792H256V1280H384V768H640V1280H768V1792H1024V1280H896V768H768V256H640V0H384V256H256V768H128V1280H0V1792Z" />
<glyph unicode="W" glyph-name="W" d="M0 1792H256V768H384V1024H512V768H640V1792H896V0H640V256H512V512H384V256H256V0H0V1792Z" />
<glyph unicode="X" glyph-name="X" d="M0 256H128V512H256V768H384V1024H256V1280H128V1536H0V1792H256V1536H384V1280H640V1536H768V1792H1024V1536H896V1280H768V1024H640V768H768V512H896V256H1024V0H768V256H640V512H384V256H256V0H0V256Z" />
<glyph unicode="Y" glyph-name="Y" d="M0 1792H256V1280H384V1024H640V1280H768V1792H1024V1280H896V1024H768V768H640V256H768V0H256V256H384V768H256V1024H128V1280H0V1792Z" />
<glyph unicode="Z" glyph-name="Z" d="M0 256H128V512H256V768H384V1024H512V1280H640V1536H256V1280H128V1024H0V1792H896V1280H768V1024H640V768H512V512H384V256H640V512H768V768H896V0H0V256Z" />
<glyph unicode="[" glyph-name="bracketleft" d="M768 1792V1536H512V256H768V0H256V1792H768Z" />
<glyph unicode="\" glyph-name="backslash" d="M0 1792H256V1536H384V1280H512V1024H640V768H768V512H896V256H1024V0H768V256H640V512H512V768H384V1024H256V1280H128V1536H0V1792Z" />
<glyph unicode="]" glyph-name="bracketright" d="M768 1792V0H256V256H512V1536H256V1792H768Z" />
<glyph unicode="^" glyph-name="asciicircum" d="M0 1024H128V1280H256V1536H384V1792H512V1536H640V1280H768V1024H896V768H640V1024H512V1280H384V1024H256V768H0V1024Z" />
<glyph unicode="_" glyph-name="underscore" d="M0 0H896V-256H0V0Z" />
<glyph unicode="`" glyph-name="grave" d="M640 1792V1280H768V1024H512V1280H384V1792H640Z" />
<glyph unicode="a" glyph-name="a" d="M384 512V256H640V512H384ZM256 1280H768V1024H896V256H1024V0H768V256H640V0H256V256H128V512H256V768H640V1024H256V1280Z" />
<glyph unicode="b" glyph-name="b" d="M384 768V256H640V1024H512V768H384ZM0 1792H384V1024H512V1280H768V1024H896V256H768V0H256V256H128V1536H0V1792Z" />
<glyph unicode="c" glyph-name="c" d="M256 1280H768V1024H896V768H640V1024H384V256H640V512H896V256H768V0H256V256H128V1024H256V1280Z" />
<glyph unicode="d" glyph-name="d" d="M384 1024V256H640V768H512V1024H384ZM256 1280H512V1024H640V1536H512V1792H896V256H1024V0H768V256H640V0H256V256H128V1024H256V1280Z" />
<glyph unicode="e" glyph-name="e" d="M384 1024V768H640V1024H384ZM256 1280H768V1024H896V512H384V256H768V0H256V256H128V1024H256V1280Z" />
<glyph unicode="f" glyph-name="f" d="M768 1792V1536H896V1280H640V1536H512V1024H640V768H512V256H640V0H128V256H256V768H128V1024H256V1536H384V1792H768Z" />
<glyph unicode="g" glyph-name="g" d="M256 256V0H640V256H256ZM384 1024V512H640V1024H384ZM0 256H256V512H128V1024H256V1280H640V1024H768V1280H1024V1024H896V512H768V256H896V0H768V-256H128V0H0V256Z" />
<glyph unicode="h" glyph-name="h" d="M0 256H128V1536H0V1792H384V1024H512V1280H768V1024H896V0H640V1024H512V768H384V0H0V256Z" />
<glyph unicode="i" glyph-name="i" d="M640 1792V1536H384V1792H640ZM256 1280H640V256H768V0H256V256H384V1024H256V1280Z" />
<glyph unicode="j" glyph-name="j" d="M128 256H384V0H640V1280H896V0H768V-256H256V0H128V256ZM896 1792V1536H640V1792H896Z" />
<glyph unicode="k" glyph-name="k" d="M0 256H128V1536H0V1792H384V768H512V1024H640V1280H896V1024H768V768H640V512H768V256H896V0H640V256H512V512H384V0H0V256Z" />
<glyph unicode="l" glyph-name="l" d="M640 1792V256H768V0H256V256H384V1536H256V1792H640Z" />
<glyph unicode="m" glyph-name="m" d="M128 1280H384V1024H512V768H640V1280H896V1024H1024V0H768V768H640V512H512V768H384V0H128V1280Z" />
<glyph unicode="n" glyph-name="n" d="M128 1280H768V1152H896V0H640V1024H384V0H128V1280Z" />
<glyph unicode="o" glyph-name="o" d="M384 1024V256H640V1024H384ZM256 1280H768V1024H896V256H768V0H256V256H128V1024H256V1280Z" />
<glyph unicode="p" glyph-name="p" d="M384 1024V512H640V1024H384ZM0 0H128V1024H0V1280H256V1024H384V1280H768V1024H896V512H768V256H384V0H512V-256H0V0Z" />
<glyph unicode="q" glyph-name="q" d="M384 1024V512H640V1024H384ZM256 1280H768V1024H896V1280H1024V1024H896V0H1024V-256H640V256H256V512H128V1024H256V1280Z" />
<glyph unicode="r" glyph-name="r" d="M0 256H128V1024H0V1280H384V1024H512V1280H768V1024H896V512H640V1024H512V768H384V256H512V0H0V256Z" />
<glyph unicode="s" glyph-name="s" d="M256 1280H896V1024H384V768H768V512H896V256H768V0H128V256H640V512H256V768H128V1024H256V1280Z" />
<glyph unicode="t" glyph-name="t" d="M640 1792V1280H896V1024H640V256H768V512H896V256H768V0H512V256H384V1024H256V1280H384V1536H512V1792H640Z" />
<glyph unicode="u" glyph-name="u" d="M128 1280H384V256H640V1280H896V256H1024V0H768V256H640V0H256V256H128V1280Z" />
<glyph unicode="v" glyph-name="v" d="M128 1280H384V512H640V1280H896V512H768V256H640V0H384V256H256V512H128V1280Z" />
<glyph unicode="w" glyph-name="w" d="M128 1280H384V512H512V1024H640V512H768V1280H1024V512H896V0H640V512H512V0H256V512H128V1280Z" />
<glyph unicode="x" glyph-name="x" d="M128 1280H384V1024H512V768H640V1024H768V1280H1024V1024H896V768H768V512H896V256H1024V0H768V256H640V512H512V256H384V0H128V256H256V512H384V768H256V1024H128V1280Z" />
<glyph unicode="y" glyph-name="y" d="M128 1280H384V512H640V1280H896V512H768V256H640V0H512V-256H128V0H384V256H256V512H128V1280Z" />
<glyph unicode="z" glyph-name="z" d="M128 768V1280H896V1024H768V768H640V512H512V256H768V512H896V0H128V256H256V512H384V768H512V1024H256V768H128Z" />
<glyph unicode="{" glyph-name="braceleft" d="M896 1792V1536H640V1024H512V768H640V256H896V0H512V256H384V768H128V1024H384V1536H512V1792H896Z" />
<glyph unicode="|" glyph-name="bar" d="M640 1792V-256H384V1792H640Z" />
<glyph unicode="}" glyph-name="braceright" d="M512 1792V1536H640V1024H896V768H640V256H512V0H128V256H384V768H512V1024H384V1536H128V1792H512Z" />
<glyph unicode="~" glyph-name="asciitilde" d="M0 1536H128V1792H512V1536H768V1792H896V1536H768V1280H384V1536H128V1280H0V1536Z" />
</font>
</defs>
</svg>
